<mxfile host="app.diagrams.net" agent="Mozilla/5.0 (Macintosh; Intel Mac OS X 10_15_7) AppleWebKit/605.1.15 (KHTML, like Gecko) Version/18.5 Safari/605.1.15" version="27.2.0">
  <diagram name="Page-1" id="5CS2MTB42-4PAp8uvFRV">
    <mxGraphModel dx="1773" dy="652" grid="1" gridSize="10" guides="1" tooltips="1" connect="1" arrows="1" fold="1" page="1" pageScale="1" pageWidth="827" pageHeight="1169" math="0" shadow="0">
      <root>
        <mxCell id="0" />
        <mxCell id="1" parent="0" />
        <mxCell id="YDPevR1wyn9iq-IC90rJ-20" style="edgeStyle=orthogonalEdgeStyle;rounded=0;orthogonalLoop=1;jettySize=auto;html=1;" edge="1" parent="1" source="YDPevR1wyn9iq-IC90rJ-1" target="YDPevR1wyn9iq-IC90rJ-4">
          <mxGeometry relative="1" as="geometry">
            <Array as="points">
              <mxPoint x="414" y="120" />
              <mxPoint x="-112" y="120" />
            </Array>
          </mxGeometry>
        </mxCell>
        <mxCell id="YDPevR1wyn9iq-IC90rJ-22" value="" style="edgeStyle=orthogonalEdgeStyle;rounded=0;orthogonalLoop=1;jettySize=auto;html=1;" edge="1" parent="1" source="YDPevR1wyn9iq-IC90rJ-1" target="YDPevR1wyn9iq-IC90rJ-21">
          <mxGeometry relative="1" as="geometry">
            <Array as="points">
              <mxPoint x="414" y="120" />
              <mxPoint x="228" y="120" />
            </Array>
          </mxGeometry>
        </mxCell>
        <mxCell id="YDPevR1wyn9iq-IC90rJ-26" value="" style="edgeStyle=orthogonalEdgeStyle;rounded=0;orthogonalLoop=1;jettySize=auto;html=1;" edge="1" parent="1" source="YDPevR1wyn9iq-IC90rJ-1" target="YDPevR1wyn9iq-IC90rJ-25">
          <mxGeometry relative="1" as="geometry" />
        </mxCell>
        <mxCell id="YDPevR1wyn9iq-IC90rJ-29" value="" style="edgeStyle=orthogonalEdgeStyle;rounded=0;orthogonalLoop=1;jettySize=auto;html=1;" edge="1" parent="1" source="YDPevR1wyn9iq-IC90rJ-1" target="YDPevR1wyn9iq-IC90rJ-25">
          <mxGeometry relative="1" as="geometry" />
        </mxCell>
        <mxCell id="YDPevR1wyn9iq-IC90rJ-31" value="" style="edgeStyle=orthogonalEdgeStyle;rounded=0;orthogonalLoop=1;jettySize=auto;html=1;" edge="1" parent="1" source="YDPevR1wyn9iq-IC90rJ-1" target="YDPevR1wyn9iq-IC90rJ-30">
          <mxGeometry relative="1" as="geometry">
            <Array as="points">
              <mxPoint x="414" y="120" />
              <mxPoint x="598" y="120" />
            </Array>
          </mxGeometry>
        </mxCell>
        <mxCell id="YDPevR1wyn9iq-IC90rJ-37" style="edgeStyle=orthogonalEdgeStyle;rounded=0;orthogonalLoop=1;jettySize=auto;html=1;" edge="1" parent="1" source="YDPevR1wyn9iq-IC90rJ-1" target="YDPevR1wyn9iq-IC90rJ-36">
          <mxGeometry relative="1" as="geometry">
            <Array as="points">
              <mxPoint x="414" y="120" />
              <mxPoint x="788" y="120" />
            </Array>
          </mxGeometry>
        </mxCell>
        <mxCell id="YDPevR1wyn9iq-IC90rJ-1" value="&lt;b&gt;Kantor Cabang Karawang&lt;/b&gt;&lt;div&gt;&lt;br&gt;&lt;/div&gt;&lt;div&gt;Pimpinan Cabang&lt;/div&gt;" style="rounded=1;whiteSpace=wrap;html=1;" vertex="1" parent="1">
          <mxGeometry x="346" y="30" width="136" height="70" as="geometry" />
        </mxCell>
        <mxCell id="YDPevR1wyn9iq-IC90rJ-7" value="" style="edgeStyle=orthogonalEdgeStyle;rounded=0;orthogonalLoop=1;jettySize=auto;html=1;entryX=0.5;entryY=0;entryDx=0;entryDy=0;" edge="1" parent="1" source="YDPevR1wyn9iq-IC90rJ-4" target="YDPevR1wyn9iq-IC90rJ-6">
          <mxGeometry relative="1" as="geometry">
            <Array as="points">
              <mxPoint x="-112" y="230" />
              <mxPoint x="-292" y="230" />
            </Array>
          </mxGeometry>
        </mxCell>
        <mxCell id="YDPevR1wyn9iq-IC90rJ-9" value="" style="edgeStyle=orthogonalEdgeStyle;rounded=0;orthogonalLoop=1;jettySize=auto;html=1;" edge="1" parent="1" source="YDPevR1wyn9iq-IC90rJ-4" target="YDPevR1wyn9iq-IC90rJ-8">
          <mxGeometry relative="1" as="geometry" />
        </mxCell>
        <mxCell id="YDPevR1wyn9iq-IC90rJ-11" style="edgeStyle=orthogonalEdgeStyle;rounded=0;orthogonalLoop=1;jettySize=auto;html=1;" edge="1" parent="1" source="YDPevR1wyn9iq-IC90rJ-4" target="YDPevR1wyn9iq-IC90rJ-10">
          <mxGeometry relative="1" as="geometry">
            <Array as="points">
              <mxPoint x="-112" y="230" />
              <mxPoint x="68" y="230" />
            </Array>
          </mxGeometry>
        </mxCell>
        <mxCell id="YDPevR1wyn9iq-IC90rJ-4" value="&lt;b&gt;Fungsi Operasional &amp;amp; Layanan&lt;/b&gt;&lt;div&gt;&lt;br&gt;&lt;/div&gt;&lt;div&gt;Manajer Operasional&lt;/div&gt;" style="rounded=1;whiteSpace=wrap;html=1;" vertex="1" parent="1">
          <mxGeometry x="-180" y="140" width="136" height="70" as="geometry" />
        </mxCell>
        <mxCell id="YDPevR1wyn9iq-IC90rJ-17" value="" style="edgeStyle=orthogonalEdgeStyle;rounded=0;orthogonalLoop=1;jettySize=auto;html=1;" edge="1" parent="1" source="YDPevR1wyn9iq-IC90rJ-6" target="YDPevR1wyn9iq-IC90rJ-16">
          <mxGeometry relative="1" as="geometry" />
        </mxCell>
        <mxCell id="YDPevR1wyn9iq-IC90rJ-6" value="&lt;b&gt;Seksi Penunjang Layanan&lt;/b&gt;&lt;div&gt;&lt;br&gt;&lt;/div&gt;&lt;div&gt;Supervisor Penunjang Layanan&lt;/div&gt;" style="rounded=1;whiteSpace=wrap;html=1;" vertex="1" parent="1">
          <mxGeometry x="-360" y="250" width="136" height="80" as="geometry" />
        </mxCell>
        <mxCell id="YDPevR1wyn9iq-IC90rJ-13" value="" style="edgeStyle=orthogonalEdgeStyle;rounded=0;orthogonalLoop=1;jettySize=auto;html=1;" edge="1" parent="1" source="YDPevR1wyn9iq-IC90rJ-8" target="YDPevR1wyn9iq-IC90rJ-12">
          <mxGeometry relative="1" as="geometry" />
        </mxCell>
        <mxCell id="YDPevR1wyn9iq-IC90rJ-8" value="&lt;b&gt;Seksi&lt;/b&gt;&lt;div&gt;&lt;b&gt;Sub. Operasional&lt;/b&gt;&lt;div&gt;&lt;br&gt;&lt;/div&gt;&lt;div&gt;Asisten Manajer Operasional&lt;/div&gt;&lt;/div&gt;" style="rounded=1;whiteSpace=wrap;html=1;" vertex="1" parent="1">
          <mxGeometry x="-180" y="250" width="136" height="80" as="geometry" />
        </mxCell>
        <mxCell id="YDPevR1wyn9iq-IC90rJ-19" value="" style="edgeStyle=orthogonalEdgeStyle;rounded=0;orthogonalLoop=1;jettySize=auto;html=1;" edge="1" parent="1" source="YDPevR1wyn9iq-IC90rJ-10" target="YDPevR1wyn9iq-IC90rJ-18">
          <mxGeometry relative="1" as="geometry" />
        </mxCell>
        <mxCell id="YDPevR1wyn9iq-IC90rJ-10" value="&lt;b&gt;Seksi&lt;/b&gt;&lt;div&gt;&lt;b&gt;Operasional Kredit&lt;/b&gt;&lt;div&gt;&lt;br&gt;&lt;/div&gt;&lt;div&gt;Supervisor Operasional Kredit&lt;/div&gt;&lt;/div&gt;" style="rounded=1;whiteSpace=wrap;html=1;" vertex="1" parent="1">
          <mxGeometry y="250" width="136" height="80" as="geometry" />
        </mxCell>
        <mxCell id="YDPevR1wyn9iq-IC90rJ-15" value="" style="edgeStyle=orthogonalEdgeStyle;rounded=0;orthogonalLoop=1;jettySize=auto;html=1;" edge="1" parent="1" source="YDPevR1wyn9iq-IC90rJ-12" target="YDPevR1wyn9iq-IC90rJ-14">
          <mxGeometry relative="1" as="geometry" />
        </mxCell>
        <mxCell id="YDPevR1wyn9iq-IC90rJ-12" value="&lt;div&gt;Supervisor Operasional &amp;amp; Layanan&lt;br&gt;&lt;/div&gt;" style="rounded=1;whiteSpace=wrap;html=1;" vertex="1" parent="1">
          <mxGeometry x="-180" y="360" width="136" height="80" as="geometry" />
        </mxCell>
        <mxCell id="YDPevR1wyn9iq-IC90rJ-14" value="&lt;div&gt;CS &amp;amp; Teller&lt;br&gt;&lt;/div&gt;" style="rounded=1;whiteSpace=wrap;html=1;" vertex="1" parent="1">
          <mxGeometry x="-180" y="480" width="136" height="80" as="geometry" />
        </mxCell>
        <mxCell id="YDPevR1wyn9iq-IC90rJ-16" value="Staf Penunjang Layanan" style="rounded=1;whiteSpace=wrap;html=1;" vertex="1" parent="1">
          <mxGeometry x="-360" y="360" width="136" height="80" as="geometry" />
        </mxCell>
        <mxCell id="YDPevR1wyn9iq-IC90rJ-18" value="Staf Operasional Kredit" style="rounded=1;whiteSpace=wrap;html=1;" vertex="1" parent="1">
          <mxGeometry y="360" width="136" height="80" as="geometry" />
        </mxCell>
        <mxCell id="YDPevR1wyn9iq-IC90rJ-24" value="" style="edgeStyle=orthogonalEdgeStyle;rounded=0;orthogonalLoop=1;jettySize=auto;html=1;" edge="1" parent="1" source="YDPevR1wyn9iq-IC90rJ-21" target="YDPevR1wyn9iq-IC90rJ-23">
          <mxGeometry relative="1" as="geometry" />
        </mxCell>
        <mxCell id="YDPevR1wyn9iq-IC90rJ-21" value="&lt;b&gt;Fungsi Bisnis Mikro&lt;/b&gt;&lt;div&gt;&lt;br&gt;&lt;/div&gt;&lt;div&gt;Supervisor Bisnis Mikro&lt;/div&gt;" style="rounded=1;whiteSpace=wrap;html=1;" vertex="1" parent="1">
          <mxGeometry x="160" y="140" width="136" height="70" as="geometry" />
        </mxCell>
        <mxCell id="YDPevR1wyn9iq-IC90rJ-23" value="28 Unit BRI" style="rounded=1;whiteSpace=wrap;html=1;" vertex="1" parent="1">
          <mxGeometry x="160" y="250" width="136" height="70" as="geometry" />
        </mxCell>
        <mxCell id="YDPevR1wyn9iq-IC90rJ-28" value="" style="edgeStyle=orthogonalEdgeStyle;rounded=0;orthogonalLoop=1;jettySize=auto;html=1;" edge="1" parent="1" source="YDPevR1wyn9iq-IC90rJ-25" target="YDPevR1wyn9iq-IC90rJ-27">
          <mxGeometry relative="1" as="geometry" />
        </mxCell>
        <mxCell id="YDPevR1wyn9iq-IC90rJ-25" value="&lt;b&gt;Fungsi Bisnis Kecil&lt;/b&gt;&lt;div&gt;&lt;br&gt;&lt;/div&gt;&lt;div&gt;Supervisor Bisnis Kecil&lt;/div&gt;" style="rounded=1;whiteSpace=wrap;html=1;" vertex="1" parent="1">
          <mxGeometry x="346" y="140" width="136" height="70" as="geometry" />
        </mxCell>
        <mxCell id="YDPevR1wyn9iq-IC90rJ-27" value="RM SME" style="rounded=1;whiteSpace=wrap;html=1;" vertex="1" parent="1">
          <mxGeometry x="346" y="250" width="136" height="70" as="geometry" />
        </mxCell>
        <mxCell id="YDPevR1wyn9iq-IC90rJ-35" value="" style="edgeStyle=orthogonalEdgeStyle;rounded=0;orthogonalLoop=1;jettySize=auto;html=1;" edge="1" parent="1" source="YDPevR1wyn9iq-IC90rJ-30" target="YDPevR1wyn9iq-IC90rJ-34">
          <mxGeometry relative="1" as="geometry" />
        </mxCell>
        <mxCell id="YDPevR1wyn9iq-IC90rJ-30" value="&lt;b&gt;Fungsi Bisnis Konsumer&lt;/b&gt;&lt;div&gt;&lt;br&gt;&lt;/div&gt;&lt;div&gt;Supervisor Bisnis Konsumer&lt;/div&gt;" style="rounded=1;whiteSpace=wrap;html=1;" vertex="1" parent="1">
          <mxGeometry x="530" y="140" width="136" height="80" as="geometry" />
        </mxCell>
        <mxCell id="YDPevR1wyn9iq-IC90rJ-34" value="RM Konsumer" style="rounded=1;whiteSpace=wrap;html=1;" vertex="1" parent="1">
          <mxGeometry x="530" y="250" width="136" height="70" as="geometry" />
        </mxCell>
        <mxCell id="YDPevR1wyn9iq-IC90rJ-39" value="" style="edgeStyle=orthogonalEdgeStyle;rounded=0;orthogonalLoop=1;jettySize=auto;html=1;" edge="1" parent="1" source="YDPevR1wyn9iq-IC90rJ-36" target="YDPevR1wyn9iq-IC90rJ-38">
          <mxGeometry relative="1" as="geometry" />
        </mxCell>
        <mxCell id="YDPevR1wyn9iq-IC90rJ-36" value="&lt;b&gt;Fungsi Dana &amp;amp; Transaksi&lt;/b&gt;&lt;div&gt;&lt;br&gt;&lt;/div&gt;&lt;div&gt;Supervisor Bisnis Kecil&lt;/div&gt;" style="rounded=1;whiteSpace=wrap;html=1;" vertex="1" parent="1">
          <mxGeometry x="720" y="140" width="136" height="70" as="geometry" />
        </mxCell>
        <mxCell id="YDPevR1wyn9iq-IC90rJ-38" value="RM Dana &amp;amp; Transaksi" style="rounded=1;whiteSpace=wrap;html=1;" vertex="1" parent="1">
          <mxGeometry x="720" y="250" width="136" height="70" as="geometry" />
        </mxCell>
        <mxCell id="YDPevR1wyn9iq-IC90rJ-40" value="&lt;b&gt;Kantor Cabang Pembantu Rengasdengklok&lt;/b&gt;&lt;div&gt;&lt;br&gt;&lt;/div&gt;&lt;div&gt;Pimpinan Cabang Pembantu&lt;/div&gt;" style="rounded=1;whiteSpace=wrap;html=1;" vertex="1" parent="1">
          <mxGeometry x="910" y="140" width="136" height="100" as="geometry" />
        </mxCell>
        <mxCell id="YDPevR1wyn9iq-IC90rJ-41" value="&lt;b&gt;Kantor Cabang Pembantu Rengasdengklok&lt;/b&gt;&lt;div&gt;&lt;br&gt;&lt;/div&gt;&lt;div&gt;Pimpinan Cabang Pembantu&lt;/div&gt;" style="rounded=1;whiteSpace=wrap;html=1;" vertex="1" parent="1">
          <mxGeometry x="1105" y="140" width="136" height="100" as="geometry" />
        </mxCell>
      </root>
    </mxGraphModel>
  </diagram>
</mxfile>
